# xmcd
#
# Track frame offsets: 
#        150
#        5198
#        35073
#        67341
#        79015
#        97936
#        125368
#
# Disc length: 2034 seconds
#
# Revision: 0
# Processed by: cddbd v1.5.2PL0 Copyright (c) Steve Scherf et al.
# Submitted via: ExactAudioCopy v0.95b3
#
DISCID=5b07f007
DTITLE=Alan Parsons Project  - The Complete Audio Guide To The Alan Pa
DTITLE=rsons Project - Disc 3
DYEAR=1900
DGENRE=
TTITLE0=End Of The Day (excerpt)
TTITLE1=Year Of The Cat
TTITLE2=Time Passages
TTITLE3=Dream Within A Dream
TTITLE4=The Raven
TTITLE5=To One In Paradise
TTITLE6=I Robot
EXTD=
EXTT0=
EXTT1=
EXTT2=
EXTT3=
EXTT4=
EXTT5=
EXTT6=
PLAYORDER=
